<svg id="visual" viewBox="0 0 900 675" width="900" height="675" xmlns="http://www.w3.org/2000/svg" xmlns:xlink="http://www.w3.org/1999/xlink" version="1.1"><g><g transform="translate(291 562)"><path d="M95.7 -66.7C105 -39.1 80.4 -3.4 58.8 33.4C37.2 70.3 18.6 108.3 -5.3 111.4C-29.1 114.4 -58.3 82.4 -72.7 49.7C-87.2 16.9 -87 -16.6 -72.4 -47.2C-57.9 -77.9 -28.9 -105.6 7.1 -109.7C43.2 -113.8 86.4 -94.3 95.7 -66.7Z" fill="#FFF" opacity="0.9"></path></g><g transform="translate(642 552)"><path d="M27 -13.2C33.9 -3.6 37.7 10.1 32.7 25.3C27.6 40.5 13.8 57.2 2.2 55.9C-9.4 54.6 -18.7 35.4 -23.9 20.1C-29.2 4.8 -30.3 -6.7 -25.6 -15C-20.9 -23.3 -10.5 -28.5 -0.2 -28.4C10.1 -28.3 20.1 -22.8 27 -13.2Z" fill="#FFF" opacity="0.9s"></path></g><g transform="translate(661 66)"><path d="M76 -41.9C85.7 -27 72.2 3.4 55.6 24.1C39.1 44.8 19.5 55.8 2.1 54.5C-15.2 53.3 -30.5 39.9 -43 21.5C-55.6 3.1 -65.5 -20.2 -57.8 -33.9C-50.2 -47.6 -25.1 -51.7 4 -54C33.1 -56.3 66.2 -56.8 76 -41.9Z" fill="#FFF" opacity="0.9"></path></g><g transform="translate(247 80)"><path d="M22.2 -15.5C29.7 0.2 37.4 13.1 33.7 23.1C30 33.1 15 40.3 4.2 37.9C-6.7 35.5 -13.4 23.5 -18 13C-22.6 2.4 -25.1 -6.7 -21.7 -20C-18.4 -33.2 -9.2 -50.5 -0.9 -50C7.3 -49.5 14.7 -31.1 22.2 -15.5Z" fill="#FFF" opacity="1"></path></g><g transform="translate(6 340)"><path d="M58.3 -32.4C63.8 -24.1 48.4 -2.5 35.2 11.1C22 24.7 11 30.4 -2.4 31.7C-15.8 33.1 -31.5 30.2 -39.2 19.8C-46.8 9.3 -46.4 -8.6 -38.5 -18.2C-30.6 -27.9 -15.3 -29.2 5.5 -32.4C26.4 -35.6 52.8 -40.7 58.3 -32.4Z" fill="#FFF" opacity="0.75"></path></g><g transform="translate(879 315)"><path d="M79.6 -40.1C96.2 -17.3 97.7 20 81.9 46.1C66.1 72.2 33.1 87.1 0.9 86.6C-31.3 86.1 -62.6 70.2 -74.4 46.4C-86.2 22.5 -78.5 -9.2 -62.8 -31.4C-47.2 -53.6 -23.6 -66.4 4 -68.7C31.6 -71 63.1 -62.8 79.6 -40.1Z" fill="#FFF" opacity="0.8"></path></g></g></svg>