<svg id="visual" viewBox="0 0 900 675" width="900" height="675" xmlns="http://www.w3.org/2000/svg" xmlns:xlink="http://www.w3.org/1999/xlink" version="1.1"><rect x="0" y="0" width="900" height="675" fill="#ff6347"></rect><path d="M0 182L16.7 182.5C33.3 183 66.7 184 100 182.2C133.3 180.3 166.7 175.7 200 192.2C233.3 208.7 266.7 246.3 300 247.5C333.3 248.7 366.7 213.3 400 207C433.3 200.7 466.7 223.3 500 239C533.3 254.7 566.7 263.3 600 263.8C633.3 264.3 666.7 256.7 700 243.3C733.3 230 766.7 211 800 196.7C833.3 182.3 866.7 172.7 883.3 167.8L900 163L900 0L883.3 0C866.7 0 833.3 0 800 0C766.7 0 733.3 0 700 0C666.7 0 633.3 0 600 0C566.7 0 533.3 0 500 0C466.7 0 433.3 0 400 0C366.7 0 333.3 0 300 0C266.7 0 233.3 0 200 0C166.7 0 133.3 0 100 0C66.7 0 33.3 0 16.7 0L0 0Z" fill="#228b22"></path><path d="M0 162L16.7 159.8C33.3 157.7 66.7 153.3 100 153C133.3 152.7 166.7 156.3 200 156.3C233.3 156.3 266.7 152.7 300 157.3C333.3 162 366.7 175 400 190.2C433.3 205.3 466.7 222.7 500 214.7C533.3 206.7 566.7 173.3 600 157.3C633.3 141.3 666.7 142.7 700 152.5C733.3 162.3 766.7 180.7 800 191.7C833.3 202.7 866.7 206.3 883.3 208.2L900 210L900 0L883.3 0C866.7 0 833.3 0 800 0C766.7 0 733.3 0 700 0C666.7 0 633.3 0 600 0C566.7 0 533.3 0 500 0C466.7 0 433.3 0 400 0C366.7 0 333.3 0 300 0C266.7 0 233.3 0 200 0C166.7 0 133.3 0 100 0C66.7 0 33.3 0 16.7 0L0 0Z" fill="#1b811a"></path><path d="M0 105L16.7 105.3C33.3 105.7 66.7 106.3 100 117C133.3 127.7 166.7 148.3 200 156.8C233.3 165.3 266.7 161.7 300 162C333.3 162.3 366.7 166.7 400 171.2C433.3 175.7 466.7 180.3 500 167.7C533.3 155 566.7 125 600 124.5C633.3 124 666.7 153 700 164C733.3 175 766.7 168 800 160.7C833.3 153.3 866.7 145.7 883.3 141.8L900 138L900 0L883.3 0C866.7 0 833.3 0 800 0C766.7 0 733.3 0 700 0C666.7 0 633.3 0 600 0C566.7 0 533.3 0 500 0C466.7 0 433.3 0 400 0C366.7 0 333.3 0 300 0C266.7 0 233.3 0 200 0C166.7 0 133.3 0 100 0C66.7 0 33.3 0 16.7 0L0 0Z" fill="#137712"></path><path d="M0 85L16.7 87.8C33.3 90.7 66.7 96.3 100 98.3C133.3 100.3 166.7 98.7 200 104.7C233.3 110.7 266.7 124.3 300 127.2C333.3 130 366.7 122 400 111.2C433.3 100.3 466.7 86.7 500 90.2C533.3 93.7 566.7 114.3 600 112C633.3 109.7 666.7 84.3 700 81C733.3 77.7 766.7 96.3 800 107.2C833.3 118 866.7 121 883.3 122.5L900 124L900 0L883.3 0C866.7 0 833.3 0 800 0C766.7 0 733.3 0 700 0C666.7 0 633.3 0 600 0C566.7 0 533.3 0 500 0C466.7 0 433.3 0 400 0C366.7 0 333.3 0 300 0C266.7 0 233.3 0 200 0C166.7 0 133.3 0 100 0C66.7 0 33.3 0 16.7 0L0 0Z" fill="#0a6d08"></path><path d="M0 26L16.7 29.8C33.3 33.7 66.7 41.3 100 51.5C133.3 61.7 166.7 74.3 200 70.8C233.3 67.3 266.7 47.7 300 45.5C333.3 43.3 366.7 58.7 400 68.8C433.3 79 466.7 84 500 83.7C533.3 83.3 566.7 77.7 600 70.5C633.3 63.3 666.7 54.7 700 56C733.3 57.3 766.7 68.7 800 74C833.3 79.3 866.7 78.7 883.3 78.3L900 78L900 0L883.3 0C866.7 0 833.3 0 800 0C766.7 0 733.3 0 700 0C666.7 0 633.3 0 600 0C566.7 0 533.3 0 500 0C466.7 0 433.3 0 400 0C366.7 0 333.3 0 300 0C266.7 0 233.3 0 200 0C166.7 0 133.3 0 100 0C66.7 0 33.3 0 16.7 0L0 0Z" fill="#006400"></path></svg>